<!-- generated; diagram=local-l3-information-lock-break; renderer-sha256=43f09bec3ee328556fc80285ec74a075650758681590c443959a52356aeb0ea3 -->
<svg xmlns="http://www.w3.org/2000/svg" class="example" viewBox="0 0 944 390" width="944" height="390" role="img" aria-label="Hanabi game-state diagram"><rect x="0" y="0" width="944" height="390" fill="#fff"/><style>.site-theme-text{fill:#111}</style><defs><linearGradient id="rainbowtext" x1="0" y1="0" x2="100%" y2="0"><stop offset="0" stop-color="#ff7777"></stop><stop offset="0.25" stop-color="#ffff77"></stop><stop offset="0.5" stop-color="#77ff77"></stop><stop offset="0.75" stop-color="#77ffff"></stop><stop offset="1" stop-color="#7777ff"></stop></linearGradient><filter id="note_shadow" x="-40%" y="-40%" width="180%" height="180%"><feDropShadow dx="0" dy="1.2" stdDeviation="1.2" flood-color="#000" flood-opacity="0.88"></feDropShadow></filter><filter id="shadow_rank"><feOffset in="SourceAlpha" dx="2" dy="2" result="offsetblur"></feOffset><feComponentTransfer result="shadow"><feFuncA type="linear" slope="0.5"></feFuncA></feComponentTransfer><feMorphology in="SourceAlpha" operator="dilate" radius="1" result="border"></feMorphology><feMerge><feMergeNode in="shadow"></feMergeNode><feMergeNode in="border"></feMergeNode><feMergeNode in="SourceGraphic"></feMergeNode></feMerge></filter><filter id="shadow_suit"><feOffset in="SourceAlpha" dx="1" dy="1" result="offsetblur"></feOffset><feComponentTransfer result="shadow"><feFuncA type="linear" slope="0.5"></feFuncA></feComponentTransfer><feMorphology in="SourceAlpha" operator="dilate" radius="0.5" result="border"></feMorphology><feMerge><feMergeNode in="shadow"></feMergeNode><feMergeNode in="border"></feMergeNode><feMergeNode in="SourceGraphic"></feMergeNode></feMerge></filter></defs><text x="464" y="50" class="site-theme-text" font-size="22" dominant-baseline="central" font-family="system-ui, sans-serif">Alice</text><text x="464" y="80" fill="black" font-size="16" dominant-baseline="central" font-family="system-ui, sans-serif" paint-order="stroke" stroke="white" stroke-width="4" stroke-linejoin="round">Clue Giver</text><text x="464" y="80" fill="black" font-size="16" dominant-baseline="central" font-family="system-ui, sans-serif">Clue Giver</text><rect x="554" y="0" width="70" height="100" fill="gray" rx="5" ry="5"></rect><rect x="632" y="0" width="70" height="100" fill="gray" rx="5" ry="5"></rect><rect x="710" y="0" width="70" height="100" fill="gray" rx="5" ry="5"></rect><rect x="788" y="0" width="70" height="100" fill="gray" rx="5" ry="5"></rect><rect x="866" y="0" width="70" height="100" fill="gray" rx="5" ry="5"></rect><text x="464" y="175" class="site-theme-text" font-size="22" dominant-baseline="central" font-family="system-ui, sans-serif">Bob</text><rect x="551" y="122" width="76" height="106" fill="orange" rx="5" ry="5"></rect><image href="assets/25b582afd91eb15cda71.svg" x="554" y="125" width="70" height="100" preserveAspectRatio="xMidYMid meet"></image><image href="assets/c6d698d2310b980ef308.svg" x="564" y="85" width="50" height="70" preserveAspectRatio="xMidYMid meet"></image><circle cx="589" cy="110" r="15" fill="blue" stroke="black" stroke-width="2"></circle><rect x="557" y="125" width="64" height="20" stroke="white" fill="black"></rect><text x="589" y="135" fill="white" font-size="12" text-anchor="middle" dominant-baseline="central" font-family="system-ui, sans-serif">Earlier: 2</text><text x="589" y="175" fill="white" font-size="24" font-weight="700" letter-spacing="0.2px" text-anchor="middle" dominant-baseline="central" font-family="system-ui, sans-serif" filter="url(#note_shadow)">r2 → b2</text><rect x="557" y="230" width="64" height="20" stroke="white" fill="black"></rect><text x="589" y="240" fill="white" font-size="12" text-anchor="middle" dominant-baseline="central" font-family="system-ui, sans-serif">Broken</text><rect x="632" y="125" width="70" height="100" fill="gray" rx="5" ry="5"></rect><rect x="710" y="125" width="70" height="100" fill="gray" rx="5" ry="5"></rect><rect x="788" y="125" width="70" height="100" fill="gray" rx="5" ry="5"></rect><rect x="866" y="125" width="70" height="100" fill="gray" rx="5" ry="5"></rect><text x="464" y="315" class="site-theme-text" font-size="22" dominant-baseline="central" font-family="system-ui, sans-serif">Cathy</text><rect x="554" y="265" width="70" height="100" fill="gray" rx="5" ry="5"></rect><rect x="632" y="265" width="70" height="100" fill="gray" rx="5" ry="5"></rect><rect x="710" y="265" width="70" height="100" fill="gray" rx="5" ry="5"></rect><rect x="788" y="265" width="70" height="100" fill="gray" rx="5" ry="5"></rect><rect x="866" y="265" width="70" height="100" fill="gray" rx="5" ry="5"></rect></svg>
